<svg t="1765443563124" class="icon" viewBox="0 0 1024 1024" version="1.1" xmlns="http://www.w3.org/2000/svg" p-id="5277" width="16" height="16"><path d="M274.863158 388.042105c51.2 0 94.315789-43.115789 94.315789-94.315789s-43.115789-94.315789-94.315789-94.31579S180.547368 242.526316 180.547368 293.726316s40.421053 94.315789 94.31579 94.315789z m0-148.210526c29.642105 0 56.589474 24.252632 56.589474 56.589474s-26.947368 53.894737-56.589474 53.894736-56.589474-24.252632-56.589474-56.589473 24.252632-53.894737 56.589474-53.894737z" p-id="5278" fill="#13227a"></path><path d="M105.094737 379.957895c0 2.694737 0 2.694737 0 0l121.263158 164.378947c10.778947 18.863158 26.947368 29.642105 45.810526 29.642105s35.031579-10.778947 45.810526-29.642105l115.873685-150.905263v-2.694737c16.168421-29.642105 26.947368-61.978947 26.947368-97.010526 0-105.094737-83.536842-188.631579-188.631579-188.631579s-188.631579 83.536842-188.631579 188.631579c0 32.336842 8.084211 59.284211 21.557895 86.231579z m169.768421-237.136842c83.536842 0 150.905263 67.368421 150.905263 150.905263 0 26.947368-8.084211 53.894737-21.557895 78.147368l-115.873684 150.905263v2.694737c-2.694737 8.084211-8.084211 13.473684-13.473684 13.473684s-10.778947-5.389474-13.473684-13.473684l-121.263158-161.68421c-10.778947-21.557895-16.168421-43.115789-16.168421-67.368421-2.694737-86.231579 67.368421-153.6 150.905263-153.6z" p-id="5279" fill="#13227a"></path><path d="M972.8 202.105263c-10.778947-8.084211-21.557895-8.084211-32.336842-5.389474L700.631579 274.863158c-18.863158 5.389474-43.115789 5.389474-61.978947 0L547.031579 242.526316c-8.084211-5.389474-18.863158 0-21.557895 8.08421s2.694737 21.557895 10.778948 24.252632l91.621052 32.336842c26.947368 10.778947 59.284211 10.778947 86.231579 0l237.136842-78.147368v533.557894c0 2.694737-2.694737 5.389474-5.389473 8.084211L711.410526 862.315789c-24.252632 8.084211-48.505263 10.778947-72.757894 5.389474L377.263158 805.726316c-29.642105-8.084211-61.978947-5.389474-91.621053 2.694737l-212.88421 72.757894V482.357895c0-10.778947-8.084211-18.863158-18.863158-18.863158s-18.863158 8.084211-18.863158 18.863158v396.126316c0 10.778947 5.389474 24.252632 16.168421 29.642105 5.389474 5.389474 13.473684 8.084211 21.557895 8.08421 2.694737 0 8.084211 0 10.778947-2.694737l212.884211-70.063157c21.557895-8.084211 48.505263-8.084211 70.063158-2.694737l264.08421 59.28421c32.336842 8.084211 61.978947 5.389474 94.31579-5.389473l234.442105-86.231579c18.863158-8.084211 29.642105-24.252632 29.642105-43.11579V231.747368c0-10.778947-5.389474-24.252632-16.168421-29.642105z" p-id="5280" fill="#13227a"></path><path d="M315.284211 627.873684c-5.389474 8.084211-2.694737 21.557895 5.389473 26.947369 40.421053 29.642105 80.842105 43.115789 121.263158 43.115789 48.505263 0 99.705263-21.557895 156.294737-61.978947 48.505263-35.031579 97.010526-48.505263 140.126316-43.11579 45.810526 8.084211 91.621053 40.421053 126.652631 91.621053 5.389474 8.084211 16.168421 10.778947 26.947369 5.389474 8.084211-5.389474 10.778947-18.863158 5.389473-26.947369-40.421053-59.284211-94.315789-99.705263-150.905263-107.789474-53.894737-10.778947-113.178947 5.389474-169.768421 48.505264-105.094737 75.452632-169.768421 61.978947-231.747368 18.863158-13.473684-2.694737-24.252632-2.694737-29.642105 5.389473z" p-id="5281" fill="#13227a"></path></svg>